Coordinates
version=1
nRows=9
nColumns=24
inDegrees=yes

Units are S.I. units (second, meters, Newtons, ...)
Angles are in degrees.

endheader
time	pelvis_tilt	pelvis_list	pelvis_rotation	pelvis_tx	pelvis_ty	pelvis_tz	hip_flexion_r	hip_adduction_r	hip_rotation_r	knee_angle_r	ankle_angle_r	subtalar_angle_r	mtp_angle_r	hip_flexion_l	hip_adduction_l	hip_rotation_l	knee_angle_l	ankle_angle_l	subtalar_angle_l	mtp_angle_l	lumbar_extension	lumbar_bending	lumbar_rotation
      2.83000000	     -2.99363917	     -3.71966885	      0.09660870	     -1.27637670	      0.93946911	      0.20967452	     14.20936971	     12.18258262	      8.56542969	    -22.48606137	     14.31058811	    -13.45690822	      0.00000000	     24.69265855	     -5.61165595	     -2.98959943	    -67.87663151	     12.97110786	     -9.29296700	      0.00000000	     -9.58379140	      3.37645431	     -5.30806351
      2.83500000	     -2.94198638	     -3.44916044	     -0.17478827	     -1.26989368	      0.94072338	      0.21010250	     13.40036762	     11.93657108	      8.97339743	    -21.97789615	     14.44656367	    -13.42668505	      0.00000000	     25.24294943	     -5.42398955	     -3.26414861	    -67.01590665	     13.31685879	     -9.14866221	      0.00000000	     -9.67019365	      3.00878257	     -5.01831136
      2.84000000	     -2.91020637	     -3.18175132	     -0.44198578	     -1.26342227	      0.94188909	      0.21050297	     12.63381784	     11.67815454	      9.31831638	    -21.48955298	     14.55871961	    -13.37858966	      0.00000000	     25.77748125	     -5.23195709	     -3.53774544	    -66.05463217	     13.65173101	     -9.00130131	      0.00000000	     -9.72642047	      2.64834385	     -4.78113650
      2.84500000	     -2.88142899	     -2.93129059	     -0.70024878	     -1.25696367	      0.94295108	      0.21086872	     11.87962834	     11.42600614	      9.63867519	    -21.00357486	     14.68678789	    -13.33012873	      0.00000000	     26.29049207	     -5.04733005	     -3.80012081	    -65.01511858	     13.93641706	     -8.87653121	      0.00000000	     -9.77702516	      2.31252791	     -4.53979105
      2.85000000	     -2.86015055	     -2.69547355	     -0.96188882	     -1.25050316	      0.94391423	      0.21121898	     11.15046531	     11.18099366	      9.92183156	    -20.53736478	     14.80748626	    -13.27506696	      0.00000000	     26.77578497	     -4.87240170	     -4.06585697	    -63.88550221	     14.19419716	     -8.78299215	      0.00000000	     -9.81605564	      1.99975147	     -4.30886261
      2.85500000	     -2.84750043	     -2.48064131	     -1.21912865	     -1.24405060	      0.94476507	      0.21154347	     10.44809318	     10.94944393	     10.16545226	    -20.08995706	     14.92614077	    -13.21964682	      0.00000000	     27.23815490	     -4.70810984	     -4.31792274	    -62.67148270	     14.42725277	     -8.71934262	      0.00000000	     -9.83979405	      1.71302513	     -4.09764597
      2.86000000	     -2.82898929	     -2.28652269	     -1.47881036	     -1.23758509	      0.94551825	      0.21185202	      9.74596605	     10.73431144	     10.39178579	    -19.64673606	     15.05267407	    -13.17175803	      0.00000000	     27.66099578	     -4.55603758	     -4.56096135	    -61.37907594	     14.62453581	     -8.68823522	      0.00000000	     -9.86857700	      1.45385663	     -3.86769180
      2.86500000	     -2.80963368	     -2.12117628	     -1.73290914	     -1.23111261	      0.94616513	      0.21213685	      9.05516784	     10.54314240	     10.58076662	    -19.21633668	     15.17618123	    -13.13633434	      0.00000000	     28.05333029	     -4.42450373	     -4.78804710	    -60.01304907	     14.79094129	     -8.67482634	      0.00000000	     -9.89343306	      1.23435704	     -3.64378380
      2.87000000	     -2.82267620	     -1.97645397	     -1.96847081	     -1.22464001	      0.94665536	      0.21238027	      8.42001966	     10.36755883	     10.70801590	    -18.81237287	     15.28906103	    -13.10914906	      0.00000000	     28.45023757	     -4.29775658	     -4.98613705	    -58.57150646	     14.96707589	     -8.65523365	      0.00000000	     -9.87898084	      1.04555925	     -3.48859766
